<?xml version="1.0" encoding="utf-8"?>
<!-- Generator: Adobe Illustrator 25.2.0, SVG Export Plug-In . SVG Version: 6.00 Build 0)  -->
<svg version="1.1" xmlns="http://www.w3.org/2000/svg" xmlns:xlink="http://www.w3.org/1999/xlink" x="0px" y="0px"
	 viewBox="0 0 51.97 138.8" style="enable-background:new 0 0 51.97 138.8;" xml:space="preserve">
<style type="text/css">
	.st0{fill:#07080B;}
	.st1{fill:#A7C8EA;}
	.st2{fill:#C5DCF4;}
	.st3{fill:#ECEAEC;}
</style>
<g id="Слой_1">
	<g>
		<path class="st0" d="M33.86,0.37c2.43,1.29,3.18,3.38,2.94,6c-0.11,1.16,0.1,2.33-0.21,3.49c-0.16,0.62-0.4,1.18-0.81,1.67
			c-1.7,2.06-1.66,4.68,0.14,6.72c4.05,4.58,8.09,9.18,12.19,13.71c2.6,2.87,3.82,6.2,3.82,10.05c-0.01,12.15-0.05,24.3,0.03,36.44
			c0.02,3.61-0.57,6.99-2.03,10.32c-2.63,6-3.02,12.3-2.13,18.74c0.43,3.1,1.34,6.02,2.61,8.85c1.07,2.38,1.61,4.85,1.51,7.45
			c-0.12,3,0.42,6.03-0.51,8.98c-1.04,3.29-4.21,5.73-7.65,5.79c-3.15,0.06-6.3,0.03-9.45,0c-1.55-0.02-3.02-0.47-4.32-1.3
			c-2.66-1.7-5.26-1.69-7.92,0c-1.51,0.96-3.2,1.34-4.99,1.33c-2.65-0.02-5.31,0-7.96-0.01c-4.81-0.01-8.41-2.84-8.8-7.65
			c-0.42-5.2-0.84-10.51,1.68-15.46c0.94-1.84,1.52-3.83,1.91-5.85c1.47-7.59,0.98-15-2.25-22.12c-1.06-2.33-1.53-4.76-1.52-7.31
			c0.01-12.69,0.02-25.37,0-38.06c-0.01-3.95,1.24-7.35,3.91-10.29c4.05-4.46,7.97-9.04,12.04-13.49c1.54-1.68,1.36-3.6,1.35-5.57
			c0-0.31-0.26-0.45-0.47-0.61c-1.28-1.01-1.66-2.4-1.68-3.94c-0.01-0.63,0.05-1.26-0.01-1.89c-0.25-2.61,0.5-4.71,2.94-6
			C23.42,0.37,28.64,0.37,33.86,0.37z M26.04,8.96c1.07,0.01,2.15,0.04,3.22,0.04c3.72,0.01,3.7,0,3.43-3.77
			c-0.05-0.64-0.24-0.85-0.88-0.83c-1.92,0.05-3.85,0.04-5.77,0.06c-1.07-0.01-2.15-0.04-3.22-0.04c-3.74-0.01-3.72,0-3.44,3.78
			c0.05,0.65,0.27,0.84,0.89,0.82C22.18,8.98,24.11,8.98,26.04,8.96z M29.29,75.7c-2.73-2.76-5.44-5.55-8.21-8.27
			c-1.04-1.02-2.22-1.03-3.36-0.11c-0.87,0.7-1.66,1.48-2.49,2.23c-2.44,2.11-4.88,4.22-7.59,6.56c2.9,0,5.37,0,7.84,0
			c4.36,0,8.72,0.01,13.08-0.02C28.78,76.09,29.4,76.48,29.29,75.7z M37.1,49.84c-10.56,0-21.11,0.02-31.67-0.02
			c-1.08,0-1.24,0.38-1.23,1.33c0.04,7.14,0.02,14.29,0.03,21.43c0,0.28-0.18,0.63,0.27,0.88c3.66-3.2,7.33-6.42,11.01-9.64
			c2.51-1.58,5.07-1.76,7.53,0c0.82,0.59,1.15,0.36,1.72-0.22c2.49-2.54,4.99-5.06,7.53-7.54c2.33-2.27,5.4-2.61,7.99-0.91
			c0.67,0.44,1.25,1.02,1.82,1.59c1.84,1.82,3.65,3.65,5.75,5.75c0-3.93-0.07-7.46,0.03-10.99c0.04-1.36-0.3-1.78-1.69-1.7
			c-2.01,0.11-2.58-0.51-2.65-2.45c0.29-0.91,0.97-1.32,1.86-1.54c0.8-0.2,1.94,0.46,2.35-0.38c0.36-0.73,0.09-1.76,0.09-2.66
			c0-0.4,0.02-0.81,0-1.21c-0.1-2-0.49-3.89-1.71-5.56c-0.46-0.63-0.79-0.87-1.59-0.41c-1.36,0.79-2.9,1.11-4.49,1.23
			c-3.32,0.25-6.24-0.74-8.96-2.61c-3.34-2.28-6.79-2.26-10.15-0.01c-1.69,1.13-3.48,1.99-5.43,2.53c-2.7,0.18-5.41,0.3-7.86-1.07
			c-0.89-0.5-1.34-0.4-1.78,0.43c-0.23,0.43-0.51,0.84-0.72,1.28c-1.24,2.53-0.88,5.25-0.91,7.92c-0.01,0.54,0.44,0.47,0.78,0.47
			c3.41-0.02,6.82-0.04,10.23-0.06c0.49,0.02,0.99,0.06,1.48,0.06c6.43,0,12.86,0,19.28,0.01c1.89,0,2.39,0.37,2.94,2.08
			C38.66,48.83,38.25,49.68,37.1,49.84z M47.63,123.55c-0.49-0.02-0.98-0.07-1.47-0.07c-9.33,0-18.66-0.01-27.99,0.01
			c-1.16,0-2.13-0.24-2.7-1.34c-0.08-0.66-0.06-1.31,0.26-1.92c0.65-0.76,1.52-0.82,2.45-0.82c9.17,0.02,18.34,0.01,27.5,0.01
			c0.47,0,0.93,0,1.54,0c-0.79-1.99-1.65-3.73-2.17-5.56c-2.72-9.5-2.43-18.86,1.64-27.97c0.61-1.37,0.92-2.79,1.14-4.26
			c0.17-1.12-0.12-1.46-1.3-1.45c-9.8,0.05-19.59,0.03-29.39,0.03c-0.63,0-1.25,0.04-1.88,0.07C11.83,80.24,8.42,80.23,5,80.18
			c-0.7-0.01-0.83,0.31-0.78,0.91c0.13,1.66,0.51,3.25,1.17,4.8c4.48,10.4,4.57,20.86,0.34,31.36c-0.28,0.68-0.72,1.32-0.72,2.17
			c1.17,0,2.3-0.01,3.42,0c1.39,0.02,2.23,0.75,2.26,1.94c0.03,1.26-0.8,2.06-2.26,2.1c-1.12,0.04-2.25,0.04-3.37,0
			c-0.64-0.02-0.86,0.19-0.85,0.84c0.04,1.84-0.04,3.69,0.03,5.53c0.1,2.95,1.96,4.7,4.92,4.72c2.16,0.01,4.32-0.06,6.47,0.02
			c1.99,0.07,3.78-0.42,5.51-1.4c3.26-1.84,6.58-1.78,9.86,0.01c0.98,0.53,1.95,1.14,3.1,1.23c3.32,0.28,6.65,0.23,9.96,0.04
			c1.6-0.09,2.93-1.15,3.37-2.73C48.18,129.05,47.99,126.28,47.63,123.55z M9.45,31.99c1.03,0.51,1.94,0.67,2.88,0.77
			c2.42,0.25,4.48-0.62,6.41-1.97c2.65-1.84,5.57-2.48,8.79-2.16c2.52,0.25,4.61,1.33,6.63,2.71c2.27,1.55,4.74,1.77,7.34,1.14
			c0.82-0.2,1.26-0.41,0.43-1.31c-2.83-3.08-5.51-6.28-8.36-9.34c-2.07-2.22-3.25-4.7-3.08-7.75c0.04-0.72-0.14-1.03-0.95-1.01
			c-2.34,0.06-4.67,0.06-7.01,0c-0.83-0.02-0.97,0.32-0.93,1.02c0.18,3.06-1.01,5.53-3.08,7.75C15.46,25.12,12.53,28.52,9.45,31.99z
			 M40.71,76.11c2.56,0,4.31-0.03,6.06,0.02c0.8,0.02,1.11-0.18,1.08-1.05c-0.06-2.02-0.04-4.04-0.01-6.06
			c0.01-0.59-0.18-1.01-0.59-1.41c-2.84-2.81-5.65-5.66-8.49-8.46c-1.34-1.32-2.5-1.31-3.86,0.03c-2.53,2.49-5.01,5.02-7.55,7.51
			c-0.49,0.49-0.55,0.77-0.02,1.27c1.34,1.26,2.75,2.49,3.89,3.92C33.91,75.21,37,77.31,40.71,76.11z"/>
		<path class="st1" d="M15.24,80.27c0.63-0.02,1.25-0.07,1.88-0.07c9.8,0,19.59,0.02,29.39-0.03c1.18-0.01,1.47,0.33,1.3,1.45
			c-0.22,1.47-0.53,2.89-1.14,4.26c-4.07,9.11-4.36,18.47-1.64,27.97c0.52,1.83,1.38,3.57,2.17,5.56c-0.6,0-1.07,0-1.54,0
			c-9.17,0-18.34,0.01-27.5-0.01c-0.93,0-1.8,0.06-2.45,0.82c-0.4-0.58-0.23-1.2-0.11-1.81c0.74-3.63,1.34-7.29,1.48-10.98
			c0.14-3.7,0.11-7.41,0-11.11c-0.06-2.13-0.37-4.26-0.68-6.37C15.94,86.73,15.02,83.57,15.24,80.27z"/>
		<path class="st1" d="M15.24,80.27c-0.22,3.3,0.7,6.46,1.17,9.68c0.31,2.11,0.62,4.24,0.68,6.37c0.11,3.7,0.14,7.41,0,11.11
			c-0.14,3.7-0.74,7.35-1.48,10.98c-0.12,0.61-0.29,1.23,0.11,1.81c-0.33,0.61-0.34,1.25-0.26,1.92c-0.08,0.2-0.2,0.4-0.22,0.61
			c-0.17,2.67,2.15,5.04,4.98,5.05c7.77,0.01,15.54,0.02,23.31,0c1.29,0,2.93,0.55,3.78-0.23c0.87-0.8,0.18-2.47,0.3-3.75
			c0.01-0.09,0.01-0.18,0.01-0.27c0.37,2.74,0.55,5.5-0.2,8.18c-0.44,1.58-1.77,2.64-3.37,2.73c-3.31,0.19-6.64,0.24-9.96-0.04
			c-1.15-0.1-2.11-0.7-3.1-1.23c-3.29-1.79-6.6-1.85-9.86-0.01c-1.73,0.98-3.52,1.47-5.51,1.4c-2.16-0.08-4.32-0.01-6.47-0.02
			c-2.95-0.01-4.82-1.77-4.92-4.72c-0.06-1.84,0.01-3.69-0.03-5.53c-0.01-0.65,0.2-0.87,0.85-0.84c1.12,0.04,2.25,0.04,3.37,0
			c1.46-0.05,2.3-0.85,2.26-2.1c-0.03-1.18-0.87-1.91-2.26-1.94c-1.12-0.02-2.24,0-3.42,0c0-0.85,0.44-1.49,0.72-2.17
			c4.23-10.5,4.14-20.96-0.34-31.36c-0.67-1.55-1.04-3.14-1.17-4.8C4.17,80.5,4.31,80.18,5,80.18
			C8.42,80.23,11.83,80.24,15.24,80.27z"/>
		<path class="st2" d="M38.94,47.86c-0.55-1.71-1.04-2.08-2.94-2.08c-6.43-0.01-12.86,0-19.28-0.01c-0.49,0-0.99-0.04-1.48-0.06
			c-0.04-2.99-0.05-5.99,0.27-8.97c1.95-0.54,3.74-1.4,5.43-2.53c3.37-2.25,6.82-2.28,10.15,0.01c2.73,1.87,5.64,2.85,8.96,2.61
			c1.59-0.12,3.12-0.44,4.49-1.23c0.8-0.46,1.13-0.22,1.59,0.41c1.22,1.67,1.61,3.56,1.71,5.56c0.02,0.4,0.01,0.81,0,1.21
			c0,0.9,0.26,1.93-0.09,2.66c-0.41,0.84-1.55,0.18-2.35,0.38c-0.89,0.22-1.57,0.63-1.86,1.54c-0.31,0.44-0.73,0.57-1.27,0.54
			C41.17,47.85,40.05,47.87,38.94,47.86z"/>
		<path class="st2" d="M38.94,47.86c1.11,0.01,2.23-0.01,3.34,0.03c0.53,0.02,0.95-0.1,1.27-0.54c0.07,1.94,0.64,2.56,2.65,2.45
			c1.39-0.08,1.73,0.34,1.69,1.7c-0.1,3.53-0.03,7.06-0.03,10.99c-2.09-2.1-3.91-3.94-5.75-5.75c-0.57-0.57-1.15-1.15-1.82-1.59
			c-2.59-1.7-5.67-1.36-7.99,0.91c-2.54,2.48-5.05,5-7.53,7.54c-0.57,0.58-0.89,0.81-1.72,0.22c-2.45-1.76-5.02-1.59-7.53,0
			c-0.42-0.35-0.27-0.83-0.27-1.26c-0.01-3.72,0.03-7.45-0.03-11.17c-0.02-1.08,0.32-1.36,1.37-1.35
			c6.37,0.04,12.74,0.03,19.11,0.01c0.48,0,0.99,0.16,1.42-0.22C38.25,49.68,38.66,48.83,38.94,47.86z"/>
		<path class="st3" d="M9.45,31.99c3.08-3.46,6.01-6.87,9.06-10.15c2.06-2.22,3.26-4.69,3.08-7.75c-0.04-0.7,0.1-1.04,0.93-1.02
			c2.34,0.06,4.67,0.06,7.01,0c0.81-0.02,0.99,0.29,0.95,1.01c-0.16,3.05,1.02,5.54,3.08,7.75c2.85,3.05,5.53,6.26,8.36,9.34
			c0.82,0.9,0.39,1.11-0.43,1.31c-2.6,0.63-5.07,0.41-7.34-1.14c-2.01-1.38-4.11-2.46-6.63-2.71c-3.22-0.32-6.14,0.32-8.79,2.16
			c-1.93,1.34-3.99,2.21-6.41,1.97C11.39,32.66,10.49,32.49,9.45,31.99z"/>
		<path class="st3" d="M40.71,76.11c-3.71,1.21-6.8-0.9-9.48-4.25c-1.14-1.43-2.55-2.65-3.89-3.92c-0.53-0.5-0.48-0.78,0.02-1.27
			c2.53-2.48,5.02-5.02,7.55-7.51c1.36-1.34,2.52-1.35,3.86-0.03c2.85,2.81,5.66,5.65,8.49,8.46c0.41,0.4,0.6,0.82,0.59,1.41
			c-0.04,2.02-0.06,4.04,0.01,6.06c0.03,0.86-0.28,1.07-1.08,1.05C45.02,76.07,43.27,76.11,40.71,76.11z"/>
		<path class="st2" d="M37.1,49.84c-0.43,0.38-0.94,0.22-1.42,0.22c-6.37,0.01-12.74,0.03-19.11-0.01
			c-1.05-0.01-1.39,0.27-1.37,1.35c0.06,3.72,0.02,7.45,0.03,11.17c0,0.43-0.16,0.91,0.27,1.26c-3.68,3.22-7.35,6.44-11.01,9.64
			c-0.45-0.25-0.27-0.61-0.27-0.88C4.22,65.43,4.24,58.29,4.2,51.14c0-0.95,0.15-1.33,1.23-1.33C15.99,49.86,26.55,49.84,37.1,49.84
			z"/>
		<path class="st1" d="M47.63,123.55c0,0.09,0,0.18-0.01,0.27c-0.12,1.28,0.57,2.95-0.3,3.75c-0.85,0.78-2.49,0.23-3.78,0.23
			c-7.77,0.02-15.54,0.02-23.31,0c-2.83-0.01-5.15-2.38-4.98-5.05c0.01-0.21,0.14-0.41,0.22-0.61c0.58,1.1,1.54,1.35,2.7,1.34
			c9.33-0.02,18.66-0.01,27.99-0.01C46.65,123.48,47.14,123.52,47.63,123.55z"/>
		<path class="st2" d="M15.51,36.74c-0.32,2.98-0.31,5.98-0.27,8.97c-3.41,0.02-6.82,0.04-10.23,0.06c-0.34,0-0.79,0.07-0.78-0.47
			c0.04-2.67-0.33-5.39,0.91-7.92c0.22-0.44,0.49-0.85,0.72-1.28c0.44-0.82,0.89-0.92,1.78-0.43C10.1,37.04,12.82,36.93,15.51,36.74
			z"/>
		<path class="st3" d="M15.22,69.55c0.83-0.75,1.62-1.53,2.49-2.23c1.15-0.92,2.33-0.92,3.36,0.11c2.77,2.73,5.48,5.51,8.21,8.27
			c-0.15,0.08-0.31,0.23-0.46,0.23c-4.25,0.02-8.51,0.01-12.76,0.03c-0.78,0-0.85-0.43-0.84-1.04
			C15.23,73.13,15.22,71.34,15.22,69.55z"/>
		<path class="st1" d="M26.04,8.96c-1.93,0.02-3.85,0.01-5.78,0.06c-0.62,0.01-0.84-0.17-0.89-0.82c-0.28-3.78-0.3-3.78,3.44-3.78
			c1.07,0,2.15,0.03,3.22,0.04C26.04,5.96,26.04,7.46,26.04,8.96z"/>
		<path class="st1" d="M26.04,8.96c0-1.5,0-3,0-4.5c1.92-0.01,3.85-0.01,5.77-0.06c0.63-0.02,0.83,0.19,0.88,0.83
			c0.27,3.77,0.29,3.77-3.43,3.77C28.18,9.01,27.11,8.98,26.04,8.96z"/>
		<path class="st3" d="M15.22,69.55c0,1.79,0.01,3.58-0.01,5.37c-0.01,0.6,0.06,1.04,0.84,1.04c4.25-0.02,8.51-0.01,12.76-0.03
			c0.15,0,0.31-0.15,0.46-0.23c0.11,0.78-0.51,0.39-0.74,0.39c-4.36,0.03-8.72,0.02-13.08,0.02c-2.47,0-4.94,0-7.84,0
			C10.34,73.77,12.78,71.66,15.22,69.55z"/>
		<path class="st1" d="M9.62,80.27c0.63-0.02,1.25-0.07,1.88-0.07c9.8,0,19.59,0.02,29.39-0.03c1.18-0.01,1.47,0.33,1.3,1.45
			c-0.22,1.47-0.53,2.89-1.14,4.26c-4.07,9.11-4.36,18.47-1.64,27.97c0.52,1.83,1.38,3.57,2.17,5.56c-0.6,0-1.07,0-1.54,0
			c-9.17,0-18.34,0.01-27.5-0.01c-0.93,0-1.8,0.06-2.45,0.82c-0.4-0.58-0.23-1.2-0.11-1.81c0.74-3.63,1.34-7.29,1.48-10.98
			c0.14-3.7,0.11-7.41,0-11.11c-0.06-2.13-0.37-4.26-0.68-6.37C10.31,86.73,9.4,83.57,9.62,80.27z"/>
		<path class="st1" d="M47.63,125.23c0,0.09,0,0.18-0.01,0.27c-0.12,1.28,0.57,2.95-0.3,3.75c-0.85,0.78-2.49,0.23-3.78,0.23
			c-7.77,0.02-15.54,0.02-23.31,0c-2.83-0.01-5.15-2.38-4.98-5.05c0.01-0.21,0.14-0.41,0.22-0.61c0.58,1.1,1.54,1.35,2.7,1.34
			c9.33-0.02,18.66-0.01,27.99-0.01C46.65,125.16,47.14,125.21,47.63,125.23z"/>
	</g>
</g>
<g id="Слой_2">
</g>
</svg>
