<?xml version="1.0" encoding="utf-8"?>
<!-- Generator: Adobe Illustrator 25.2.0, SVG Export Plug-In . SVG Version: 6.00 Build 0)  -->
<svg version="1.1" xmlns="http://www.w3.org/2000/svg" xmlns:xlink="http://www.w3.org/1999/xlink" x="0px" y="0px"
	 viewBox="0 0 160.67 138.8" style="enable-background:new 0 0 160.67 138.8;" xml:space="preserve">
<style type="text/css">
	.st0{fill:#C5DCF4;stroke:#010202;stroke-width:4;stroke-linejoin:round;stroke-miterlimit:10;}
	.st1{fill:#8BAFDB;stroke:#010202;stroke-width:4;stroke-linejoin:round;stroke-miterlimit:10;}
	.st2{fill:#8BAFDB;stroke:#010202;stroke-width:4;stroke-miterlimit:10;}
	.st3{fill:#ECEAEC;stroke:#010202;stroke-width:4;stroke-linejoin:round;stroke-miterlimit:10;}
	.st4{fill:#080606;stroke:#010202;stroke-width:4;stroke-linecap:round;stroke-miterlimit:10;}
</style>
<g id="Слой_1">
	<g>
		<path class="st0" d="M158.45,90.04v26.57c0,3.4-3.5,6.15-7.8,6.15h-85.7V90.04H158.45z"/>
		<path class="st1" d="M158.45,10.26v79.78h-93.5V10.82c0-4.52,5.53-8.2,12.38-8.2h69.57C153.28,2.62,158.45,6.04,158.45,10.26z"/>
		<path class="st0" d="M64.95,122.75H14.51c-6.82,0-12.34-6.7-12.34-14.97V73.45l19.67-35.13h43.11V122.75z"/>
		<ellipse class="st2" cx="33.56" cy="122.75" rx="14.78" ry="14.1"/>
		<ellipse class="st2" cx="129.2" cy="122.76" rx="14.78" ry="14.1"/>
		<polygon class="st3" points="2.17,75.95 46.23,75.95 46.23,53.09 13.57,53.09 2.17,73.45 		"/>
		<path class="st1" d="M14.56,88.1H2.17v8.15h12.39c2.36,0,4.27-1.83,4.27-4.08C18.83,89.92,16.92,88.1,14.56,88.1z"/>
	</g>
	<line class="st4" x1="141.41" y1="27.22" x2="111.7" y2="27.22"/>
	<line class="st4" x1="122.3" y1="53.17" x2="91.19" y2="53.17"/>
</g>
<g id="Слой_2">
</g>
</svg>
