<?xml version="1.0" encoding="utf-8"?>
<!-- Generator: Adobe Illustrator 25.2.0, SVG Export Plug-In . SVG Version: 6.00 Build 0)  -->
<svg version="1.1" xmlns="http://www.w3.org/2000/svg" xmlns:xlink="http://www.w3.org/1999/xlink" x="0px" y="0px"
	 viewBox="0 0 113.8 138.8" style="enable-background:new 0 0 113.8 138.8;" xml:space="preserve">
<style type="text/css">
	.st0{fill:#080606;}
	.st1{fill:#C5DCF4;}
	.st2{fill:#8BAFDB;}
	.st3{fill:#ECEAEC;}
</style>
<g id="Слой_1">
	<g>
		<path class="st0" d="M0,138.8c0.48-3.89,0.95-7.78,1.45-11.66c0.68-5.27,1.35-10.54,2.09-15.8c0.77-5.46,2.27-10.7,4.89-15.6
			c2.04-3.83,5.36-6.14,9.16-7.84c7.18-3.22,14.67-5.56,22.26-7.6c1.07-0.29,1.41-0.71,1.47-1.86c0.11-1.95-0.48-3.22-1.99-4.58
			c-4.77-4.28-6.93-9.85-7.05-16.22c-0.02-0.93,0-1.87,0-2.82c-4.72,0.88-7.77-1.65-7.78-6.36c0-1.76-0.15-3.52,0.13-5.27
			c0.04-0.22-0.01-0.51,0.11-0.66c1.4-1.72,0.66-3.56,0.37-5.4c-0.23-1.43-0.18-2.9,0.16-4.31c0.36-1.52,1.02-2.91,2.64-3.52
			c0.92-0.35,0.7-1.21,0.78-1.84c0.5-3.85,1.46-7.57,3-11.14c3.8-8.78,10.22-14.45,19.8-15.85c8.72-1.28,17.02-0.13,23.93,6.02
			c4.71,4.19,7.25,9.64,8.84,15.62c0.53,2,0.97,4.02,1.11,6.09c0.03,0.47,0.08,0.91,0.6,1.1c1.97,0.73,2.66,2.43,2.83,4.24
			c0.19,2.04,0.4,4.16-0.59,6.11c-0.23,0.44-0.1,0.75,0.15,1.11c0.85,1.19,1.11,2.53,1.07,3.96c-0.03,1.13-0.11,2.27,0.01,3.38
			c0.43,4.06-2.77,7.91-7.8,6.71c-0.18,2.24,0.07,4.49-0.34,6.72c-0.91,5.06-3.2,9.37-7.1,12.69c-1.34,1.14-1.91,2.22-1.83,3.96
			c0.06,1.27,0.35,1.8,1.64,2.15c7.58,2.07,15.01,4.54,22.22,7.7c5.46,2.39,8.98,6.39,11.07,11.87c1.94,5.08,2.87,10.37,3.54,15.73
			c0.72,5.76,1.56,11.51,2.3,17.27c0.25,1.96,0.68,3.9,0.68,5.9c-1.26,0-2.53,0-3.79,0c-0.39-3.03-0.78-6.07-1.18-9.1
			c-0.77-5.75-1.55-11.5-2.33-17.25c-0.68-5.03-1.94-9.88-4.29-14.42c-1.76-3.4-4.61-5.42-8.19-6.8c0,5.31,0.01,10.5-0.01,15.68
			c0,0.74,0.51,0.85,0.97,1.1c3.37,1.85,5.2,4.73,5.26,8.54c0.11,6.41,0.06,12.82,0.06,19.24c0,1.87-0.64,2.46-2.57,2.46
			c-27.14,0-54.28,0-81.42,0c-2.01,0-2.73-0.68-2.73-2.65c-0.01-5.96-0.08-11.92,0.02-17.88c0.07-4.32,1.56-7.95,5.78-9.9
			c0.48-0.22,0.65-0.53,0.65-1.05c-0.02-4.97-0.01-9.93-0.01-14.9c0-0.51-0.07-0.78-0.68-0.51c-3.02,1.34-5.74,3.04-7.36,6.08
			c-0.97,1.83-1.85,3.7-2.51,5.68c-2.37,7.07-2.65,14.49-3.77,21.78c-0.71,4.62-1.28,9.27-1.91,13.91C2.53,138.8,1.26,138.8,0,138.8
			z M83.79,87.29c-0.03,0.41-0.06,0.72-0.06,1.02c0,6.77,0,13.54,0,20.31c0,2.57-0.5,3.07-3.08,3.07c-15.75,0-31.51,0-47.26,0
			c-0.32,0-0.63,0.01-0.95-0.01c-1.36-0.09-2.06-0.79-2.11-2.13c-0.02-0.59-0.01-1.17-0.01-1.76c0-6.45-0.02-12.91,0.02-19.36
			c0.01-1.01-0.2-1.27-1.19-0.86c-1.37,0.57-2.77,1.08-4.19,1.5c-0.89,0.26-1.16,0.69-1.15,1.62c0.05,5.91,0,11.83,0.04,17.74
			c0.01,1.45-0.57,2.24-1.95,2.64c-2.71,0.8-4.24,2.72-4.29,5.53c-0.09,5.41-0.03,10.83-0.14,16.25c-0.03,1.31,0.32,1.63,1.63,1.63
			c25.28-0.04,50.56-0.03,75.84-0.03c0.23,0,0.45-0.02,0.68,0c0.63,0.07,0.87-0.17,0.86-0.83c-0.03-5.6,0.04-11.2-0.06-16.79
			c-0.05-2.86-1.64-4.93-4-5.68c-2.13-0.68-2.28-0.88-2.28-3.16c0-5.78,0-11.56,0-17.33c0-0.58,0.1-1.16-0.68-1.42
			C87.59,88.63,85.74,87.97,83.79,87.29z M56.96,43.76c-6.54,0-13.09,0.02-19.63-0.02c-0.91,0-1.26,0.19-1.24,1.18
			c0.05,4.2-0.02,8.39,0.03,12.59c0.11,8.96,5.54,15.92,14.07,18.01c3.37,0.83,6.83,0.47,10.24,0.42
			c9.33-0.14,17.23-8.12,17.34-17.47c0.05-4.51-0.01-9.03,0.04-13.54c0.01-0.96-0.28-1.19-1.21-1.19
			C70.05,43.78,63.51,43.76,56.96,43.76z M45.24,6.54c-4.78,2.52-7.86,6.3-9.96,10.93c-1.88,4.15-2.76,8.55-3.02,13.08
			c-0.07,1.19-0.52,2.19-1.71,2.21c-1.56,0.03-1.62,0.92-1.62,2.01c0,0.81,0.02,1.63,0.02,2.44c0,0.8,0.34,1.13,1.17,1.06
			c1.3-0.12,2.53,0.19,3.55,1.01c0.61,0.49,1.23,0.63,1.98,0.63c14.18-0.02,28.35-0.02,42.53,0c0.79,0,1.45-0.13,2.11-0.66
			c0.77-0.62,1.72-0.94,2.75-0.98c1.98-0.08,1.98-0.1,1.99-2.07c0-0.86,0.04-1.71-0.19-2.56c-0.13-0.48-0.33-0.74-0.9-0.81
			c-1.77-0.23-2.26-0.72-2.33-2.52c-0.06-1.72-0.26-3.42-0.6-5.09c-1.09-5.37-2.98-10.38-6.8-14.46c-1.12-1.2-2.29-2.37-3.98-3.18
			c0,2.51-0.04,4.85,0.02,7.18c0.03,1.15-0.3,2.1-0.99,3c-2.03,2.67-4.75,4.26-7.99,4.92c-5.21,1.07-9.94,0.1-13.91-3.62
			c-1.43-1.34-2.31-2.88-2.16-5C45.38,11.63,45.24,9.19,45.24,6.54z M56.89,107.87c7.18,0,14.35-0.01,21.53,0.01
			c0.82,0,1.33-0.04,1.33-1.13c-0.05-6.59-0.03-13.18-0.01-19.77c0-0.69-0.2-1.08-0.89-1.27c-2.21-0.61-4.41-1.26-6.62-1.89
			c-0.68-0.19-1.14,0-1.61,0.6c-3.83,4.96-7.72,9.88-11.57,14.82c-1.49,1.91-2.6,1.97-4.09,0.1c-3.94-4.93-7.86-9.88-11.74-14.85
			c-0.55-0.7-1.07-0.84-1.84-0.61c-2.03,0.6-4.04,1.24-6.1,1.75c-0.94,0.23-1.17,0.68-1.17,1.59c0.03,6.41,0.03,12.82-0.02,19.22
			c-0.01,1.1,0.26,1.46,1.41,1.45C42.63,107.84,49.76,107.87,56.89,107.87z M68.46,78.03c-0.49,0.19-0.94,0.37-1.4,0.53
			c-1.75,0.61-3.54,1.12-5.39,1.17c-5.35,0.13-10.75,0.69-15.87-1.56c-0.34-0.15-0.75-0.22-0.74,0.38c0.02,1.06-0.13,2.07,0.67,3.05
			c3.53,4.34,6.98,8.75,10.41,13.17c0.67,0.86,0.97,0.66,1.54-0.07c3.24-4.17,6.46-8.35,9.81-12.43
			C68.56,80.97,68.77,79.68,68.46,78.03z M55.79,11.48c0-2.21,0.01-4.42-0.01-6.62c0-0.38,0.23-0.97-0.59-0.88
			c-1.79,0.2-3.57,0.37-5.32,0.8c-0.64,0.16-0.82,0.48-0.81,1.12c0.04,2.52,0.12,5.05-0.03,7.57c-0.08,1.39,0.46,2.34,1.4,3.16
			c1.27,1.1,2.7,1.89,4.38,2.25c0.84,0.18,1.01,0.02,0.99-0.78C55.77,15.9,55.79,13.69,55.79,11.48z M59.68,11.52
			c0,2.08,0.03,4.15-0.02,6.23c-0.02,0.93,0.03,1.38,1.21,1.06c2.09-0.56,3.78-1.61,5.14-3.27c0.28-0.34,0.37-0.69,0.37-1.11
			c-0.01-2.71-0.02-5.41,0.01-8.12c0-0.52-0.13-0.84-0.65-1c-1.68-0.52-3.38-0.93-5.12-1.15c-0.7-0.09-0.96,0.13-0.94,0.87
			C59.7,7.19,59.68,9.36,59.68,11.52z M85.59,46.77c0.01,0,0.01,0,0.02,0c0-0.81,0-1.62,0-2.43c0-0.09,0-0.18-0.01-0.27
			c-0.16-1.19-0.98-2.03-2.01-1.98c-1.17,0.06-1.86,0.79-1.92,1.89c-0.09,1.75-0.09,3.51-0.01,5.27c0.05,1.11,0.75,1.82,1.91,1.91
			c1.03,0.07,1.9-0.76,2.01-1.95C85.65,48.4,85.59,47.58,85.59,46.77z M32.25,46.64C32.26,46.64,32.26,46.64,32.25,46.64
			c0.01-0.77,0.01-1.53,0.01-2.3c0-0.09,0-0.18-0.01-0.27c-0.09-1.16-0.93-2.05-1.96-1.98c-1.13,0.08-1.85,0.7-1.88,1.89
			c-0.04,1.76-0.03,3.51-0.01,5.27c0.02,1.2,0.75,1.81,1.87,1.9c1.08,0.09,1.91-0.75,1.98-1.94C32.29,48.35,32.25,47.49,32.25,46.64
			z"/>
		<path class="st1" d="M3.79,138.8c0.63-4.64,1.2-9.28,1.91-13.91c1.11-7.28,1.4-14.71,3.77-21.78c0.66-1.98,1.54-3.85,2.51-5.68
			c1.62-3.04,4.34-4.74,7.36-6.08c0.61-0.27,0.68,0,0.68,0.51c-0.01,4.97-0.01,9.93,0.01,14.9c0,0.52-0.17,0.83-0.65,1.05
			c-4.22,1.95-5.71,5.58-5.78,9.9c-0.1,5.96-0.04,11.92-0.02,17.88c0,1.97,0.73,2.65,2.73,2.65c27.14,0,54.28,0,81.42,0
			c1.93,0,2.57-0.59,2.57-2.46c0-6.41,0.04-12.83-0.06-19.24c-0.06-3.82-1.89-6.69-5.26-8.54c-0.46-0.26-0.97-0.37-0.97-1.1
			c0.03-5.19,0.01-10.37,0.01-15.68c3.58,1.38,6.42,3.4,8.19,6.8c2.36,4.54,3.61,9.39,4.29,14.42c0.78,5.75,1.56,11.5,2.33,17.25
			c0.41,3.03,0.79,6.07,1.18,9.1C74.6,138.8,39.2,138.8,3.79,138.8z"/>
		<path class="st2" d="M83.79,87.29c1.95,0.68,3.8,1.34,5.67,1.95c0.78,0.25,0.68,0.83,0.68,1.42c0,5.78,0,11.56,0,17.33
			c0,2.28,0.15,2.48,2.28,3.16c2.37,0.76,3.95,2.83,4,5.68c0.09,5.6,0.03,11.19,0.06,16.79c0,0.66-0.23,0.9-0.86,0.83
			c-0.22-0.03-0.45,0-0.68,0c-25.28,0-50.56-0.01-75.84,0.03c-1.31,0-1.65-0.32-1.63-1.63c0.1-5.41,0.04-10.83,0.14-16.25
			c0.05-2.81,1.58-4.73,4.29-5.53c1.38-0.41,1.96-1.2,1.95-2.64c-0.04-5.91,0.01-11.83-0.04-17.74c-0.01-0.93,0.26-1.36,1.15-1.62
			c1.42-0.42,2.82-0.93,4.19-1.5c0.99-0.41,1.19-0.15,1.19,0.86c-0.04,6.45-0.02,12.91-0.02,19.36c0,0.59-0.02,1.17,0.01,1.76
			c0.05,1.34,0.74,2.04,2.11,2.13c0.31,0.02,0.63,0.01,0.95,0.01c15.75,0,31.51,0,47.26,0c2.58,0,3.08-0.5,3.08-3.07
			c0-6.77,0-13.54,0-20.31C83.73,88.01,83.76,87.71,83.79,87.29z M27.09,118.7c0.95,0,1.9,0,2.84,0c2.34,0,2.29,0,2.32-2.4
			c0.01-0.94-0.33-1.11-1.17-1.1c-2.26,0.05-4.51,0.02-6.77,0.02c-2.65,0-2.62,0-2.45,2.63c0.04,0.65,0.26,0.86,0.89,0.85
			C24.2,118.68,25.65,118.7,27.09,118.7z M86.87,115.22c-0.95,0-1.89,0-2.84,0c-2.35,0-2.3,0-2.3,2.38c0,0.95,0.36,1.12,1.19,1.11
			c2.25-0.04,4.51-0.01,6.77-0.01c2.53,0,2.5,0,2.43-2.55c-0.02-0.69-0.19-0.96-0.91-0.94C89.76,115.26,88.32,115.22,86.87,115.22z"
			/>
		<path class="st3" d="M57,43.19c6.54,0,13.09,0.02,19.63-0.02c0.93-0.01,1.22,0.23,1.21,1.19c-0.05,4.51,0.01,9.03-0.04,13.54
			c-0.11,9.35-8.01,17.33-17.34,17.47c-3.42,0.05-6.87,0.41-10.24-0.42c-8.52-2.09-13.96-9.05-14.07-18.01
			c-0.05-4.2,0.02-8.39-0.03-12.59c-0.01-0.99,0.34-1.19,1.24-1.18C43.91,43.2,50.46,43.19,57,43.19z"/>
		<path class="st2" d="M45.24,6.54c0,2.64,0.13,5.09-0.04,7.51c-0.15,2.13,0.73,3.67,2.16,5c3.98,3.71,8.7,4.69,13.91,3.62
			c3.24-0.66,5.95-2.25,7.99-4.92c0.68-0.9,1.02-1.85,0.99-3c-0.06-2.33-0.02-4.66-0.02-7.18c1.69,0.82,2.86,1.98,3.98,3.18
			c3.82,4.09,5.71,9.1,6.8,14.46c0.34,1.68,0.54,3.37,0.6,5.09c0.06,1.79,0.56,2.28,2.33,2.52c0.57,0.07,0.77,0.34,0.9,0.81
			c0.23,0.84,0.2,1.7,0.19,2.56c-0.01,1.97-0.01,1.99-1.99,2.07c-1.03,0.04-1.98,0.35-2.75,0.98c-0.65,0.53-1.31,0.66-2.11,0.66
			c-14.18-0.01-28.35-0.01-42.53,0c-0.76,0-1.37-0.14-1.98-0.63c-1.02-0.82-2.25-1.13-3.55-1.01c-0.83,0.08-1.17-0.26-1.17-1.06
			c0-0.81-0.02-1.62-0.02-2.44c0-1.1,0.06-1.99,1.62-2.01c1.19-0.02,1.64-1.02,1.71-2.21c0.26-4.53,1.13-8.93,3.02-13.08
			C37.38,12.84,40.46,9.07,45.24,6.54z"/>
		<path class="st1" d="M56.89,107.87c-7.13,0-14.26-0.03-21.39,0.03c-1.16,0.01-1.42-0.35-1.41-1.45
			c0.05-6.41,0.05-12.82,0.02-19.22c0-0.92,0.22-1.36,1.17-1.59c2.05-0.51,4.07-1.14,6.1-1.75c0.77-0.23,1.29-0.09,1.84,0.61
			c3.88,4.98,7.8,9.92,11.74,14.85c1.5,1.87,2.61,1.81,4.09-0.1c3.85-4.94,7.74-9.86,11.57-14.82c0.46-0.6,0.93-0.79,1.61-0.6
			c2.21,0.63,4.41,1.28,6.62,1.89c0.69,0.19,0.89,0.57,0.89,1.27c-0.02,6.59-0.04,13.18,0.01,19.77c0.01,1.08-0.51,1.13-1.33,1.13
			C71.24,107.86,64.07,107.87,56.89,107.87z"/>
		<path class="st3" d="M68.46,78.03c0.31,1.66,0.09,2.94-0.97,4.24c-3.35,4.08-6.58,8.26-9.81,12.43c-0.57,0.73-0.87,0.94-1.54,0.07
			c-3.43-4.42-6.88-8.83-10.41-13.17c-0.8-0.99-0.65-1.99-0.67-3.05c-0.01-0.6,0.4-0.53,0.74-0.38c5.12,2.25,10.52,1.69,15.87,1.56
			c1.85-0.05,3.64-0.56,5.39-1.17C67.52,78.4,67.97,78.21,68.46,78.03z"/>
		<path class="st2" d="M55.79,11.48c0,2.21-0.02,4.42,0.01,6.62c0.01,0.8-0.15,0.95-0.99,0.78c-1.69-0.36-3.11-1.15-4.38-2.25
			c-0.94-0.81-1.48-1.77-1.4-3.16c0.14-2.52,0.06-5.04,0.03-7.57c-0.01-0.64,0.17-0.96,0.81-1.12c1.75-0.44,3.54-0.61,5.32-0.8
			c0.82-0.09,0.58,0.5,0.59,0.88C55.8,7.07,55.79,9.28,55.79,11.48z"/>
		<path class="st2" d="M59.68,11.52c0-2.17,0.03-4.33-0.01-6.5c-0.01-0.73,0.24-0.95,0.94-0.87c1.75,0.22,3.44,0.63,5.12,1.15
			c0.52,0.16,0.66,0.48,0.65,1c-0.02,2.71-0.02,5.41-0.01,8.12c0,0.42-0.09,0.76-0.37,1.11c-1.36,1.66-3.05,2.71-5.14,3.27
			c-1.18,0.31-1.23-0.13-1.21-1.06C59.71,15.67,59.68,13.6,59.68,11.52z"/>
		<path class="st3" d="M85.59,46.77c0,0.81,0.06,1.63-0.01,2.43c-0.11,1.19-0.98,2.03-2.01,1.95c-1.15-0.08-1.85-0.79-1.91-1.91
			c-0.09-1.75-0.09-3.51,0.01-5.27c0.06-1.11,0.75-1.83,1.92-1.89c1.03-0.05,1.85,0.78,2.01,1.98c0.01,0.09,0.01,0.18,0.01,0.27
			c0,0.81,0,1.62,0,2.43C85.6,46.77,85.59,46.77,85.59,46.77z"/>
		<path class="st3" d="M32.25,46.64c0,0.86,0.04,1.71-0.01,2.57c-0.06,1.2-0.9,2.04-1.98,1.94c-1.12-0.1-1.85-0.7-1.87-1.9
			c-0.02-1.76-0.03-3.51,0.01-5.27c0.03-1.18,0.75-1.8,1.88-1.89c1.04-0.08,1.87,0.81,1.96,1.98c0.01,0.09,0.01,0.18,0.01,0.27
			C32.26,45.1,32.26,45.87,32.25,46.64C32.26,46.64,32.26,46.64,32.25,46.64z"/>
		<path class="st0" d="M27.09,118.7c-1.44,0-2.89-0.02-4.33,0.01c-0.63,0.01-0.85-0.2-0.89-0.85c-0.17-2.64-0.2-2.63,2.45-2.63
			c2.26,0,4.52,0.03,6.77-0.02c0.84-0.02,1.18,0.15,1.17,1.1c-0.03,2.39,0.02,2.4-2.32,2.4C28.99,118.7,28.04,118.7,27.09,118.7z"/>
		<path class="st0" d="M86.87,115.22c1.44,0,2.89,0.03,4.33-0.01c0.73-0.02,0.89,0.25,0.91,0.94c0.07,2.55,0.1,2.55-2.43,2.55
			c-2.26,0-4.51-0.03-6.77,0.01c-0.83,0.02-1.2-0.15-1.19-1.11c0.01-2.38-0.04-2.38,2.3-2.38
			C84.98,115.22,85.93,115.22,86.87,115.22z"/>
	</g>
</g>
<g id="Слой_2">
</g>
</svg>
